<svg width="249" height="235" viewBox="0 0 249 235" fill="none" xmlns="http://www.w3.org/2000/svg">
<path d="M45.0909 164H33.2727L67.4545 70.9091H79.0909L113.273 164H101.455L73.6364 85.6364H72.9091L45.0909 164ZM49.4545 127.636H97.0909V137.636H49.4545V127.636ZM187.034 100C186.034 96.9394 184.716 94.197 183.08 91.7727C181.473 89.3182 179.549 87.2273 177.307 85.5C175.095 83.7727 172.58 82.4545 169.761 81.5454C166.943 80.6364 163.852 80.1818 160.489 80.1818C154.973 80.1818 149.958 81.6061 145.443 84.4545C140.928 87.303 137.337 91.5 134.67 97.0455C132.004 102.591 130.67 109.394 130.67 117.455C130.67 125.515 132.019 132.318 134.716 137.864C137.413 143.409 141.064 147.606 145.67 150.455C150.277 153.303 155.458 154.727 161.216 154.727C166.549 154.727 171.246 153.591 175.307 151.318C179.398 149.015 182.58 145.773 184.852 141.591C187.155 137.379 188.307 132.424 188.307 126.727L191.761 127.455H163.761V117.455H199.216V127.455C199.216 135.121 197.58 141.788 194.307 147.455C191.064 153.121 186.58 157.515 180.852 160.636C175.155 163.727 168.61 165.273 161.216 165.273C152.973 165.273 145.731 163.333 139.489 159.455C133.277 155.576 128.428 150.061 124.943 142.909C121.489 135.758 119.761 127.273 119.761 117.455C119.761 110.091 120.746 103.47 122.716 97.5909C124.716 91.6818 127.534 86.6515 131.17 82.5C134.807 78.3485 139.11 75.1667 144.08 72.9545C149.049 70.7424 154.519 69.6364 160.489 69.6364C165.398 69.6364 169.973 70.3788 174.216 71.8636C178.489 73.3182 182.292 75.3939 185.625 78.0909C188.989 80.7576 191.792 83.9545 194.034 87.6818C196.277 91.3788 197.822 95.4848 198.67 100H187.034Z" fill="white" fill-opacity="0.2"/>
<path d="M248.5 117.5C248.5 182.09 193.011 234.5 124.5 234.5C55.989 234.5 0.5 182.09 0.5 117.5C0.5 52.9095 55.989 0.5 124.5 0.5C193.011 0.5 248.5 52.9095 248.5 117.5Z" stroke="white" stroke-opacity="0.3"/>
<rect x="0.5" y="0.5" width="248" height="234" stroke="white" stroke-opacity="0.3"/>
</svg>
